<svg width="33" height="17" viewBox="0 0 33 17" fill="none" xmlns="http://www.w3.org/2000/svg">
<path fill-rule="evenodd" clip-rule="evenodd" d="M25.4481 0.654261C26.8677 -0.19534 28.5778 -0.213494 30.0156 0.60343C31.457 1.42035 32.3139 2.89445 32.3139 4.55008V12.4506C32.3139 14.1063 31.457 15.5804 30.0156 16.4009C29.3112 16.8003 28.5451 17 27.7754 17C26.9766 17 26.1779 16.7822 25.4517 16.3501L18.9926 12.4942H13.3213L6.86216 16.3501C6.13964 16.7822 5.33724 17 4.53847 17C3.77237 17 3.00265 16.8003 2.29828 16.4009C0.860493 15.584 0 14.1099 0 12.4543V4.55008C0 2.89445 0.856862 1.42035 2.29465 0.599799C3.73607 -0.217125 5.44253 -0.198971 6.86216 0.65063L13.3213 4.50651H18.9926L25.4481 0.654261ZM3.19145 14.8179C4.05557 15.3081 5.07945 15.2972 5.93268 14.7889L12.1631 11.0709V9.40805H6.98926V7.59267H12.1631V5.92977L5.92905 2.21186C5.49336 1.95408 5.0141 1.82337 4.53484 1.82337C4.07736 1.82337 3.61262 1.94319 3.19145 2.18282C2.32733 2.67297 1.81176 3.55888 1.81176 4.55008V12.4506C1.81176 13.4418 2.32733 14.3278 3.19145 14.8179ZM18.3354 6.3219H13.9785V10.6788H18.3354V6.3219ZM29.1188 14.8179C29.9829 14.3278 30.4985 13.4418 30.4985 12.4506H30.5021V4.55008C30.5021 3.55888 29.9866 2.67297 29.1224 2.18282C28.2583 1.69266 27.2344 1.70355 26.3812 2.21186L20.1508 5.92977V7.59267H25.3247V9.40805H20.1508V11.0709L26.3776 14.7889C27.2308 15.2972 28.2547 15.3081 29.1188 14.8179Z" fill="#F9A17E"/>
</svg>
