<svg width="62" height="62" viewBox="0 0 62 62" fill="none" xmlns="http://www.w3.org/2000/svg">
<rect x="1" y="1" width="59.8491" height="59.8491" rx="29.9245" stroke="#30343D" stroke-width="2"/>
<path d="M31 10C27.0444 10 23.1776 11.173 19.8886 13.3706C16.5996 15.5682 14.0362 18.6918 12.5224 22.3463C11.0087 26.0009 10.6126 30.0222 11.3843 33.9018C12.156 37.7814 14.0608 41.3451 16.8579 44.1421C19.6549 46.9392 23.2186 48.844 27.0982 49.6157C30.9778 50.3874 34.9992 49.9913 38.6537 48.4776C42.3082 46.9638 45.4318 44.4004 47.6294 41.1114C49.827 37.8224 51 33.9556 51 30C51 24.6957 48.8929 19.6086 45.1421 15.8579C41.3914 12.1071 36.3043 10 31 10ZM37.1342 30.3282H33.407V43.5959H27.9293V30.3282H25.2451V25.7257H27.9293V22.9686C27.9293 20.1459 28.9066 18.337 30.8468 17.5638C31.6701 17.236 32.5502 17.0749 33.4362 17.0897H37.5646V21.663H35.0846C34.8093 21.6194 34.5272 21.6529 34.2697 21.7598C34.0123 21.8666 33.7894 22.0427 33.6258 22.2684C33.433 22.6983 33.3527 23.1702 33.3924 23.6397V25.7257H37.6229L37.1342 30.3282Z" fill="#667EB9"/>
</svg>
