<svg width="62" height="62" viewBox="0 0 62 62" fill="none" xmlns="http://www.w3.org/2000/svg">
<rect x="1" y="1" width="59.8491" height="59.8491" rx="29.9245" stroke="#30343D" stroke-width="2"/>
<path d="M31 10.0011C25.4893 9.94525 20.1819 12.0728 16.2441 15.916C12.3063 19.7593 10.0604 25.0038 10 30.497C10.0212 34.8382 11.4222 39.061 14.0016 42.5588C16.581 46.0567 20.2061 48.6496 24.3564 49.9652C25.4064 50.1556 25.7882 49.5275 25.7882 48.9757V45.4931C19.9464 46.73 18.7055 42.7527 18.7055 42.7527C18.3166 41.5041 17.4898 40.4367 16.3764 39.7458C14.4673 38.4898 16.5291 38.5088 16.5291 38.5088C17.189 38.5968 17.8203 38.8325 18.3758 39.1984C18.9312 39.5642 19.3964 40.0506 19.7364 40.6212C20.3288 41.6453 21.3009 42.3966 22.4435 42.7133C23.586 43.0301 24.8077 42.8871 25.8455 42.315C25.9522 41.2728 26.4256 40.302 27.1818 39.5746C22.5236 39.0607 17.6364 37.3099 17.6364 29.4503C17.5947 27.4001 18.3546 25.4141 19.7555 23.9124C19.1175 22.1522 19.1928 20.2135 19.9655 18.5077C19.9655 18.5077 21.7409 17.9558 25.6927 20.6011C29.1327 19.6873 32.7527 19.6873 36.1927 20.6011C40.2018 17.9558 41.92 18.5077 41.92 18.5077C42.6926 20.2135 42.768 22.1522 42.13 23.9124C43.5634 25.3866 44.3645 27.3592 44.3636 29.4122C44.3636 37.2909 39.4382 39.0227 34.8182 39.5365C35.3241 40.0261 35.7148 40.6213 35.9624 41.2794C36.21 41.9375 36.3082 42.6422 36.25 43.3426V48.9566C36.25 49.6227 36.6318 50.1555 37.6818 49.9462C41.8203 48.6225 45.4332 46.0289 48.0046 42.536C50.5761 39.0431 51.9744 34.8295 52 30.497C51.9396 25.0038 49.6937 19.7593 45.7559 15.916C41.8181 12.0728 36.5107 9.94525 31 10.0011Z" fill="white"/>
</svg>
