<svg width="261" height="50" viewBox="0 0 261 50" fill="none" xmlns="http://www.w3.org/2000/svg">
<circle cx="25" cy="25" r="25" fill="#F9A17E"/>
<path d="M13.3568 39.9212C13.702 39.1086 14.2486 38.4614 14.9174 37.9364C14.7736 37.8573 14.6297 37.7782 14.4859 37.6919L14.5075 37.7135C13.4431 38.7418 11.6812 40.9568 11.2857 42.2441C11.2641 42.316 11.2426 42.3951 11.221 42.4742C11.8466 42.8482 12.4867 43.1933 13.1411 43.517C12.8462 42.2585 12.8894 41.0215 13.3568 39.9212Z" fill="#ECBC70"/>
<path d="M36.0243 37.994L36.1178 37.8933C35.9021 38.0155 35.6935 38.1378 35.4778 38.26L35.3483 38.483C35.6648 38.8354 35.9452 39.2309 36.161 39.6768C36.7722 40.9353 36.837 42.3879 36.499 43.855C37.3404 43.4739 38.153 43.0496 38.9512 42.5821C38.9153 42.4095 38.8721 42.2585 38.829 42.1147C38.4263 40.8274 37.0887 39.0223 36.0243 37.994Z" fill="#ECBC70"/>
<path d="M36.161 39.6767C35.9452 39.2308 35.6719 38.8353 35.3483 38.4829C35.3196 38.447 35.2836 38.4182 35.2548 38.3823C33.5936 39.274 31.8964 39.95 30.1705 40.4031C28.0921 40.9496 26.4597 41.0359 25.6039 41.0359C25.5679 41.0359 25.532 41.0359 25.496 41.0359C23.9858 41.0215 22.2023 40.7123 20.3182 40.1514C19.2395 39.8277 17.233 39.2237 14.9174 37.9364C14.2486 38.4614 13.702 39.1158 13.3568 39.9212C12.8822 41.0215 12.8463 42.2585 13.1339 43.5098C16.7656 45.3004 20.8575 46.3001 25.1796 46.3001C29.214 46.3001 33.0471 45.4227 36.499 43.855C36.837 42.3879 36.7722 40.928 36.161 39.6767Z" fill="white"/>
<path d="M41.9429 31.6655C42.9641 30.4501 43.7048 29.1053 43.8702 27.4585C43.8918 27.2499 43.8989 27.0342 43.8989 26.8256C43.6329 28.0122 43.1438 29.5656 42.2161 31.198C42.1299 31.3634 42.0364 31.5145 41.9429 31.6655Z" fill="#ECBC70"/>
<path d="M8.78311 26.0345C8.78311 25.9626 8.78311 25.8906 8.7975 25.8187C8.97009 24.704 10.768 24.064 12.8031 24.3876C14.8383 24.7112 16.3485 25.8691 16.1687 26.9837C16.1472 27.1204 16.104 27.2498 16.0321 27.3721C16.5427 27.5734 16.9526 27.7892 17.2618 28.0481C17.6286 27.1923 18.3981 26.466 19.8939 25.1715C20.685 24.4883 22.4325 22.9853 25.0358 22.9062C28.0994 22.8199 30.1705 24.7688 30.7314 25.2937C32.1338 26.6098 32.7738 27.3505 33.0615 28.1703C33.8669 27.5447 34.9241 27.5734 36.2401 27.0341C36.1898 26.9262 36.1466 26.8111 36.1322 26.6961C35.9596 25.5814 37.4627 24.4236 39.4978 24.1C41.533 23.7764 43.3237 24.4164 43.5035 25.5311C43.5251 25.6821 43.5179 25.8331 43.4819 25.9913C43.6114 26.0057 43.7408 26.0201 43.8559 26.0345C43.7552 25.1068 43.5035 24.1215 43.1727 22.8558L43.072 22.4747C42.5902 20.6337 41.907 18.8358 41.0368 17.1386L40.9433 16.9517L41.0009 16.7503C41.5186 14.8158 42.0364 12.9172 42.5398 11.1122L42.5614 11.0403C43.0073 9.45096 43.561 7.47331 43.6042 4.89877C43.6329 3.21597 43.4172 2.69818 43.0864 2.4321C42.5614 2.0078 41.684 2.18759 40.6772 2.44648C39.2174 2.82044 38.2969 3.49644 36.2689 4.99226L35.8949 5.26554C34.7587 6.09974 33.5721 6.95553 32.3783 7.8185L32.1913 7.95514L31.9684 7.91918C29.8325 7.55961 27.6607 7.37982 25.4961 7.37982C25.4817 7.37982 25.4601 7.37982 25.4457 7.37982C23.1804 7.37982 20.8935 7.58838 18.657 7.98391L18.3909 8.03425L18.1895 7.85446C16.4924 6.28672 14.7161 4.84124 12.9182 3.53239C11.4727 2.48963 10.5091 1.89993 9.718 1.89993C9.55979 1.89993 9.40158 1.92151 9.25056 1.97185C8.71839 2.15163 8.40197 2.57593 8.25095 2.77729C7.25852 4.12209 7.55337 6.07817 8.07835 8.69586C8.60333 11.3136 9.24337 13.9672 9.9769 16.5777L10.0344 16.7863L9.94094 16.9804C9.20022 18.4403 8.59614 19.9793 8.14307 21.5614C7.66125 23.2442 7.21538 24.7832 7.12189 26.279C7.58933 26.1783 8.15027 26.0848 8.78311 26.0345ZM38.9872 4.59673C39.8358 4.18682 41.6984 3.28788 42.3097 3.82724C42.3241 3.84163 42.3385 3.84882 42.3528 3.8632C42.6117 4.14367 42.4751 4.6255 42.3528 5.15047C41.7631 7.62433 41.6049 10.1845 41.1303 12.6799C40.9074 13.8521 40.8067 14.4059 40.519 14.4562C39.9725 14.5497 39.541 12.7087 37.9445 10.9036C37.3907 10.278 36.8154 9.78896 36.3048 9.41501C36.01 9.19926 35.7367 9.02667 35.4922 8.88284C35.0319 8.68867 34.8737 8.45854 34.8162 8.27156C34.4782 7.12812 37.3979 5.35902 38.9872 4.59673ZM33.9892 19.8139C34.8737 19.9289 36.0747 20.7919 36.535 21.2737C37.0024 21.7556 37.5202 22.2949 37.3764 22.8558C37.2325 23.4168 36.6141 23.8339 34.1977 23.4815C31.7814 23.1291 30.077 22.4531 29.8613 22.3381C29.6455 22.223 29.1278 21.9857 29.1565 21.6621C29.1853 21.3384 30.1921 20.6265 31.1845 20.2669C32.1554 19.9217 33.0759 19.6988 33.9892 19.8139ZM27.7398 16.9301C27.7829 16.851 28.2144 16.0815 28.9983 16.0599C29.9476 16.0311 30.4366 17.1099 30.4797 17.2034C30.5445 17.3544 30.8537 18.0519 30.5301 18.5841C30.0483 19.368 28.3798 19.4759 27.7614 18.6057C27.4162 18.1167 27.4737 17.4191 27.7398 16.9301ZM19.1892 17.4766C19.2251 17.3903 19.6854 16.3907 20.5627 16.4195C21.2963 16.4411 21.6918 17.153 21.7349 17.2321C21.9794 17.6924 22.037 18.3324 21.7134 18.7855C21.138 19.5909 19.5919 19.4902 19.146 18.7639C18.844 18.2677 19.1244 17.6133 19.1892 17.4766ZM18.6929 20.0943C19.6854 20.4539 20.6922 21.1659 20.7209 21.4895C20.7497 21.8131 20.2319 22.0504 20.0162 22.1655C19.8004 22.2805 18.0889 22.9565 15.6797 23.3089C13.2634 23.6613 12.6377 23.2442 12.5011 22.6832C12.3573 22.1223 12.8751 21.583 13.3425 21.1011C13.8099 20.6193 15.0037 19.7563 15.8883 19.6413C16.8016 19.519 17.7221 19.7419 18.6929 20.0943ZM10.0344 12.5864C9.5526 10.091 9.40158 7.53085 8.81188 5.05698C8.68963 4.53201 8.55299 4.05018 8.81188 3.76971C8.82626 3.75533 8.84065 3.74814 8.85503 3.73375C9.4663 3.1944 11.3289 4.09333 12.1775 4.50324C13.7596 5.27273 16.6793 7.03463 16.3413 8.17808C16.2838 8.36505 16.1256 8.59518 15.6653 8.78935C15.428 8.93318 15.1476 9.10577 14.8527 9.32152C14.3421 9.69547 13.7668 10.1773 13.2131 10.8101C11.6237 12.6152 11.1923 14.4562 10.6385 14.3627C10.3509 14.3124 10.2574 13.7586 10.0344 12.5864Z" fill="#ECBC70"/>
<path d="M40.1379 28.1273C38.3184 28.4149 36.6931 27.9331 36.2473 27.0342C34.924 27.5735 33.8669 27.5448 33.0686 28.1704C32.781 27.3506 32.1409 26.6099 30.7386 25.2938C30.1777 24.7689 28.1065 22.8128 25.043 22.9063C22.4325 22.9854 20.685 24.4884 19.9011 25.1716C18.4053 26.466 17.6358 27.1924 17.269 28.0482C16.9598 27.7821 16.5499 27.5663 16.0393 27.3722C15.5574 28.2423 13.9609 28.6954 12.1703 28.4149C10.2645 28.1129 8.82624 27.0773 8.79028 26.0346C8.15744 26.0849 7.5965 26.1784 7.12906 26.2791C7.07153 27.1348 7.12906 27.9763 7.35918 28.8248C7.9345 30.9895 9.3656 32.2624 11.5302 34.1825C15.2194 37.4618 19.0165 38.6052 20.6418 39.0942C22.4253 39.6264 24.1081 39.9213 25.5104 39.9356C26.2727 39.9428 27.8476 39.8781 29.8972 39.3388C33.0543 38.5117 36.1178 36.9009 39.0088 34.5421C40.0731 33.5928 41.1087 32.6723 41.9573 31.6655C42.0508 31.5144 42.1443 31.3634 42.2306 31.2052C43.1583 29.5656 43.6473 28.0194 43.9134 26.8328C43.9134 26.5667 43.899 26.3078 43.8702 26.0346C43.748 26.0202 43.6257 26.0058 43.4963 25.9914C43.2518 26.9479 41.8926 27.8468 40.1379 28.1273ZM24.6115 25.0134C26.7977 25.0134 27.4521 26.0489 27.4521 26.3222C27.4521 26.5955 27.2364 26.9263 26.3303 27.7677C25.4241 28.6091 24.4749 28.3718 24.4749 28.3718C22.8352 28.3718 21.8572 26.4589 21.8572 26.164C21.8572 25.8548 22.4325 25.0134 24.6115 25.0134ZM20.2175 30.5436L20.4261 30.4861C20.4476 30.5508 20.8647 31.9387 22.0513 31.8165C22.6554 31.759 22.8712 31.6439 23.0725 31.536C23.3026 31.4138 23.5256 31.2987 24.1369 31.2627C23.9643 30.8744 23.806 30.069 24.2232 28.5803L24.4964 28.6594C24.0362 30.2919 24.3023 31.011 24.4533 31.2556C25.1005 31.2556 25.683 31.3634 26.2511 31.4713C26.9703 31.6079 27.6463 31.7302 28.2935 31.5864C29.4729 31.3131 30.4006 30.3207 30.5948 29.731L31.0047 29.8676C30.7386 30.673 29.6239 31.723 28.387 32.0035C27.6535 32.1761 26.9343 32.0394 26.172 31.8956C25.6255 31.7949 25.0574 31.687 24.4389 31.687C23.6982 31.687 23.504 31.7949 23.2739 31.91C23.0438 32.0322 22.7849 32.1689 22.0945 32.2408C22.0298 32.248 21.9722 32.248 21.9075 32.248C20.7856 32.248 20.1744 31.1908 20.009 30.5939L20.2175 30.5436Z" fill="white"/>
<path d="M39.7207 35.369C42.1299 33.226 44.6253 31.0038 44.9633 27.5663C45.1215 25.9698 44.7476 24.5459 44.2298 22.5754L44.1291 22.2015C43.6473 20.3461 42.9641 18.541 42.1011 16.8294C42.5973 14.9668 43.0935 13.1474 43.5825 11.4071L43.6041 11.3352C44.0644 9.68112 44.6469 7.63156 44.69 4.91319C44.7188 3.33107 44.5678 2.21639 43.7623 1.56916C42.7627 0.770907 41.3892 1.1161 40.3895 1.37499C38.7211 1.79929 37.6784 2.56877 35.6 4.10055L35.2333 4.37383C34.1545 5.16489 33.0399 5.97033 31.9108 6.78297C29.7893 6.43778 27.6319 6.26518 25.4816 6.26518C25.4673 6.26518 25.4457 6.26518 25.4313 6.26518C23.1876 6.26518 20.9366 6.45935 18.7217 6.8405C17.0533 5.33748 15.3201 3.92796 13.5582 2.64788C11.8179 1.37499 10.3724 0.447292 8.90533 0.92912C8.04235 1.21678 7.55333 1.8712 7.37355 2.1229C6.10785 3.83447 6.42428 6.01348 7.00678 8.91883C7.52457 11.4934 8.15023 14.1039 8.86937 16.6784C8.14303 18.1455 7.54614 19.6844 7.09308 21.2594C6.28045 24.0569 5.59007 26.4732 6.28764 29.1053C6.94925 31.5863 8.56014 33.0246 10.7895 35.0023C11.7675 35.8724 12.7528 36.5988 13.7092 37.21C12.9469 37.8501 12.3141 38.5548 11.8251 39.3315C11.6597 39.5976 11.5086 39.8709 11.3792 40.1513C10.9477 40.813 10.6025 41.453 10.4371 41.978V41.9852C10.696 42.1506 10.9549 42.3088 11.221 42.467C11.2426 42.3879 11.2641 42.3088 11.2857 42.2369C11.6884 40.9496 13.4431 38.7346 14.5075 37.7062L14.4859 37.6847C14.6297 37.771 14.7736 37.8501 14.9174 37.9292C17.233 39.2164 19.2323 39.8205 20.3182 40.1441C22.1951 40.7123 23.9858 41.0143 25.496 41.0287C25.532 41.0287 25.5679 41.0287 25.6039 41.0287C26.4525 41.0287 28.0921 40.9424 30.1705 40.3958C31.8964 39.9428 33.6008 39.2668 35.2548 38.375C35.3267 38.3319 35.4059 38.2959 35.4778 38.2528C35.6935 38.1377 35.9021 38.0155 36.1178 37.886L36.0243 37.9867C37.0887 39.0151 38.4263 40.8201 38.829 42.1074C38.8721 42.2512 38.9153 42.4095 38.9512 42.5749C39.2173 42.4166 39.4834 42.2584 39.7423 42.093C39.7207 42.0067 39.692 41.9276 39.6704 41.8413C39.2461 40.4678 37.9229 38.6268 36.7794 37.4833C37.7718 36.8577 38.7499 36.1601 39.7063 35.3762L39.7207 35.369ZM9.94809 16.9805L10.0416 16.7863L9.98405 16.5777C9.25052 13.9744 8.61048 11.3208 8.0855 8.70309C7.56053 6.0854 7.26568 4.12213 8.2581 2.78452C8.40912 2.58316 8.72554 2.15886 9.25771 1.97907C9.40873 1.92873 9.55975 1.90716 9.72516 1.90716C10.5162 1.90716 11.4799 2.48967 12.9182 3.53962C14.716 4.84846 16.4923 6.29395 18.1895 7.84011L18.3909 8.0199L18.6569 7.96956C20.8935 7.57403 23.1732 7.36548 25.4457 7.36548C25.4601 7.36548 25.4816 7.36548 25.496 7.36548C27.6535 7.36548 29.8325 7.54526 31.9683 7.90484L32.1913 7.94079L32.3783 7.80415C33.572 6.94837 34.7586 6.09259 35.8949 5.25119L36.2688 4.97791C38.2968 3.48928 39.2245 2.80609 40.6772 2.43213C41.684 2.17324 42.5614 1.99346 43.0863 2.41775C43.4171 2.68384 43.6329 3.20162 43.6041 4.88442C43.561 7.45896 43.0072 9.43661 42.5614 11.0259L42.5398 11.0978C42.0364 12.9029 41.5186 14.7943 41.0008 16.7359L40.9433 16.9373L41.0368 17.1243C41.9069 18.8215 42.5901 20.6121 43.0719 22.4604L43.1726 22.8415C43.5034 24.1072 43.7623 25.0924 43.8558 26.0201C43.8846 26.2862 43.899 26.5523 43.899 26.8184C43.899 27.0269 43.8918 27.2355 43.8702 27.4512C43.712 29.0981 42.9713 30.4357 41.9429 31.6582C41.1015 32.665 40.0587 33.5855 38.9944 34.5348C36.1106 36.8864 33.0399 38.5045 29.8828 39.3315C27.8333 39.8709 26.2583 39.9356 25.496 39.9284C24.0937 39.914 22.4109 39.6264 20.6274 39.087C19.0021 38.598 15.205 37.4545 11.5158 34.1752C9.3512 32.2479 7.9201 30.9822 7.34478 28.8176C7.11466 27.969 7.05712 27.1276 7.11466 26.2718C7.20814 24.776 7.65402 23.237 8.13584 21.5542C8.60329 19.9865 9.20737 18.4403 9.94809 16.9805Z" fill="#40220F"/>
<path d="M21.7133 18.7856C22.0369 18.3325 21.9866 17.6853 21.7349 17.2322C21.6917 17.1531 21.2962 16.4412 20.5627 16.4196C19.6853 16.3908 19.2251 17.3904 19.1891 17.4767C19.1316 17.6134 18.8439 18.2678 19.146 18.764C19.5846 19.4903 21.138 19.591 21.7133 18.7856Z" fill="white"/>
<path d="M30.53 18.577C30.8537 18.0448 30.5444 17.3401 30.4797 17.1962C30.4366 17.1027 29.9475 16.024 28.9983 16.0528C28.2144 16.0744 27.7829 16.8439 27.7398 16.923C27.4737 17.412 27.4161 18.1096 27.7613 18.5986C28.3798 19.4687 30.0482 19.3609 30.53 18.577Z" fill="white"/>
<path d="M10.6457 14.3628C11.1922 14.4563 11.6237 12.6153 13.2202 10.8102C13.774 10.1846 14.3493 9.69553 14.8599 9.32158C11.8323 5.71866 10.2214 4.40262 9.30088 3.95675C9.22897 3.92079 9.04199 3.8345 8.84782 3.72662C8.83344 3.74101 8.81906 3.7482 8.80467 3.76258C8.54578 4.04305 8.68242 4.52488 8.80467 5.04985C9.39437 7.52371 9.55258 10.0839 10.0272 12.5793C10.2573 13.7587 10.3508 14.3125 10.6457 14.3628Z" fill="#F6EDEA"/>
<path d="M14.8526 9.32149C15.1475 9.10575 15.4208 8.93315 15.6653 8.78933C16.1255 8.59516 16.2837 8.36503 16.3413 8.17805C16.6793 7.03461 13.7595 5.2727 12.1774 4.50322C11.3216 4.0933 9.46624 3.19437 8.84778 3.73373C9.04195 3.8416 9.23612 3.9279 9.30084 3.96386C10.2213 4.40254 11.8322 5.71857 14.8526 9.32149Z" fill="#E1D5CE"/>
<path d="M36.3048 9.415C36.8154 9.78896 37.3907 10.2708 37.9445 10.9036C39.5338 12.7087 39.9653 14.5497 40.519 14.4562C40.8067 14.4059 40.9073 13.8521 41.1303 12.6799C41.6121 10.1845 41.7631 7.62433 42.3528 5.15047C42.4751 4.62549 42.6117 4.14366 42.3528 3.8632C42.3384 3.84881 42.3241 3.84162 42.3097 3.82724C42.1155 3.93511 41.9213 4.02141 41.8566 4.05737C40.9361 4.49605 39.3324 5.81208 36.3048 9.415Z" fill="#F6EDEA"/>
<path d="M35.4922 8.88287C35.7295 9.0267 36.01 9.19929 36.3048 9.41503C39.3324 5.81211 40.9361 4.49608 41.8566 4.05021C41.9285 4.01425 42.1155 3.92795 42.3097 3.82008C41.6984 3.28072 39.8358 4.17965 38.9872 4.58957C37.4051 5.35905 34.4854 7.12096 34.8234 8.2644C34.8737 8.45138 35.0319 8.68151 35.4922 8.88287Z" fill="#E1D5CE"/>
<path d="M29.1565 21.662C29.1277 21.9856 29.6455 22.223 29.8612 22.338C30.077 22.4531 31.7886 23.1291 34.1977 23.4815C36.6068 23.8338 37.2397 23.4167 37.3763 22.8558C37.513 22.2949 37.0024 21.7555 36.5349 21.2737C36.0675 20.7919 34.8737 19.9289 33.9891 19.8138C33.0758 19.6988 32.1553 19.9217 31.1845 20.2741C30.1921 20.6265 29.1853 21.3384 29.1565 21.662Z" fill="#4B1E0E"/>
<path d="M13.3425 21.0941C12.875 21.5759 12.3573 22.1152 12.5011 22.6762C12.6449 23.2371 13.2634 23.6542 15.6797 23.3018C18.096 22.9494 19.8004 22.2735 20.0162 22.1584C20.2319 22.0433 20.7497 21.806 20.7209 21.4824C20.6922 21.1588 19.6853 20.4468 18.6929 20.0872C17.7221 19.7349 16.8016 19.5119 15.8883 19.627C15.0037 19.7492 13.8099 20.6122 13.3425 21.0941Z" fill="#4B1E0E"/>
<path d="M21.9076 32.2479C21.9651 32.2479 22.0298 32.2479 22.0946 32.2407C22.7849 32.1688 23.0438 32.0321 23.274 31.9099C23.5041 31.7876 23.6983 31.6869 24.439 31.6869C25.0502 31.6869 25.6184 31.7948 26.1721 31.8955C26.9344 32.0393 27.6536 32.176 28.3871 32.0034C29.624 31.7157 30.7387 30.6658 31.0048 29.8675L30.5949 29.7309C30.4007 30.3134 29.4658 31.313 28.2936 31.5863C27.6464 31.7373 26.9704 31.6078 26.2512 31.4712C25.6831 31.3633 25.1006 31.2555 24.4534 31.2555C24.3023 31.0109 24.0363 30.2918 24.4965 28.6593L24.2232 28.5802C23.8061 30.0689 23.9571 30.8743 24.1369 31.2626C23.5257 31.2914 23.3099 31.4065 23.0726 31.5359C22.8712 31.6438 22.6555 31.7589 22.0514 31.8164C20.8576 31.9386 20.4405 30.5507 20.4261 30.486L20.2176 30.5435L20.009 30.601C20.1744 31.1907 20.7857 32.2479 21.9076 32.2479Z" fill="#330108"/>
<path d="M24.4749 28.3718C24.4749 28.3718 25.4313 28.6163 26.3303 27.7677C27.2292 26.9191 27.4521 26.5955 27.4521 26.3222C27.4521 26.0489 26.7977 25.0134 24.6115 25.0134C22.4253 25.0134 21.8572 25.862 21.8572 26.1568C21.8572 26.4588 22.8424 28.3718 24.4749 28.3718Z" fill="#330108"/>
<path d="M40.1378 28.1272C41.8926 27.8467 43.2589 26.9478 43.4819 25.9913C43.5178 25.8403 43.525 25.6893 43.5034 25.5311C43.3309 24.4164 41.533 23.7764 39.4978 24.1C37.4626 24.4236 35.9524 25.5814 36.1322 26.6961C36.1538 26.8112 36.1897 26.9262 36.2401 27.0341C36.6931 27.933 38.3184 28.4149 40.1378 28.1272Z" fill="#EF9F86"/>
<path d="M12.163 28.4148C13.9465 28.6953 15.543 28.235 16.032 27.372C16.0968 27.2498 16.1471 27.1203 16.1687 26.9837C16.3413 25.869 14.8383 24.7112 12.8031 24.3876C10.7679 24.064 8.97722 24.704 8.79743 25.8187C8.78305 25.8906 8.78305 25.9625 8.78305 26.0344C8.81901 27.0772 10.2573 28.1128 12.163 28.4148Z" fill="#EF9F86"/>
<path d="M69.1902 41.9886V35.305C73.3102 37.1362 77.7049 38.0517 80.8178 38.0517C84.9379 38.0517 87.3183 36.8615 87.3183 33.3824C87.3183 29.4454 83.1067 28.6214 79.9023 27.2481C74.6836 25.0508 68 22.8534 68 15.8036C68 8.47913 73.4018 5 81.825 5C85.121 5 88.7832 5.73245 90.889 6.55645C93.2694 7.47201 94.0935 8.47913 94.0935 10.1271C94.0935 12.0498 93.0863 13.3316 91.0721 13.3316C90.2481 13.3316 89.5157 13.0569 88.5085 12.7823C86.8605 12.2329 84.4801 11.5005 81.7334 11.5005C78.2543 11.5005 76.24 12.8738 76.24 15.712C76.24 18.825 79.3529 19.3743 82.7405 20.9307C90.2481 24.2268 95.4668 26.3325 95.4668 33.2908C95.4668 40.1575 91.2552 44.4606 80.6347 44.4606C76.7894 44.5522 72.3947 43.5451 69.1902 41.9886Z" fill="#F9A17E"/>
<path d="M103.158 9.5778C103.158 7.10579 104.439 5 107.369 5C110.299 5 111.581 7.10579 111.581 9.5778V21.7547H126.504V9.5778C126.504 7.10579 127.786 5 130.716 5C133.646 5 134.927 7.10579 134.927 9.5778V43.9113H126.596V28.6214H111.489V43.9113H103.158V9.5778Z" fill="#F9A17E"/>
<path d="M144.449 9.5778C144.449 7.10579 145.731 5 148.661 5C151.591 5 152.872 7.10579 152.872 9.5778V43.9113H144.541V9.5778H144.449Z" fill="#F9A17E"/>
<path d="M162.486 12.5991C162.486 7.65511 163.859 5.36621 168.986 5.36621H176.128C184.459 5.36621 189.953 9.02845 189.953 15.712C189.953 20.1983 187.938 23.2196 184.001 24.5014V24.6845C188.396 25.6001 191.143 28.713 191.143 32.9246C191.143 38.9673 188.03 44.0028 177.409 44.0028H162.486V12.5991ZM176.311 21.5716C180.339 21.5716 181.713 19.9236 181.713 16.4445C181.713 13.1485 179.79 11.9582 176.036 11.9582H170.726V21.5716H176.311ZM176.952 37.3192C181.255 37.3192 182.811 35.4881 182.811 32.5583C182.811 29.1708 180.797 27.6143 176.769 27.6143H170.817V37.4108H176.952V37.3192Z" fill="#F9A17E"/>
<path d="M197.002 41.9886V35.305C201.122 37.1362 205.517 38.0517 208.63 38.0517C212.75 38.0517 215.13 36.8615 215.13 33.3824C215.13 29.4454 210.919 28.6214 207.714 27.2481C202.496 25.0508 195.812 22.8534 195.812 15.8036C195.812 8.47913 201.214 5 209.637 5C212.933 5 216.595 5.73245 218.701 6.55645C221.082 7.47201 221.906 8.47913 221.906 10.1271C221.906 12.0498 220.898 13.3316 218.884 13.3316C218.06 13.3316 217.328 13.0569 216.321 12.7823C214.673 12.2329 212.292 11.5005 209.546 11.5005C206.066 11.5005 204.052 12.8738 204.052 15.712C204.052 18.825 207.165 19.3743 210.553 20.9307C218.06 24.2268 223.279 26.3325 223.279 33.2908C223.279 40.1575 219.067 44.4606 208.447 44.4606C204.601 44.5522 200.207 43.5451 197.002 41.9886Z" fill="#F9A17E"/>
<path d="M228.589 24.4099C228.589 12.3245 236.28 5 247.633 5C253.584 5 256.972 6.64801 258.436 7.47201C260.084 8.29602 261 9.48624 261 11.1343C261 12.8738 259.901 14.2472 258.07 14.2472C256.605 14.2472 255.964 13.8809 254.774 13.4232C252.943 12.6907 251.478 12.0498 247.999 12.0498C241.59 12.0498 237.012 16.7192 237.012 24.593C237.012 32.833 242.048 37.777 248.182 37.777C252.852 37.777 255.964 37.0446 260.542 34.6641V41.8055C257.063 43.5451 252.76 44.6437 248.182 44.6437C235.273 44.5522 228.589 36.7699 228.589 24.4099Z" fill="#F9A17E"/>
</svg>
