<?xml version="1.0" standalone="no"?>
<!DOCTYPE svg PUBLIC "-//W3C//DTD SVG 20010904//EN"
 "http://www.w3.org/TR/2001/REC-SVG-20010904/DTD/svg10.dtd">
<svg version="1.0" xmlns="http://www.w3.org/2000/svg"
 width="261.000000pt" height="50.000000pt" viewBox="0 0 261.000000 50.000000"
 preserveAspectRatio="xMidYMid meet">

<g transform="translate(0.000000,50.000000) scale(0.100000,-0.100000)"
fill="#000000" stroke="none">
<path d="M382 439 c15 -11 39 -35 54 -52 14 -18 21 -22 15 -11 -11 22 -77 84
-89 84 -4 0 5 -10 20 -21z"/>
<path d="M79 413 l-24 -28 28 24 c15 14 27 26 27 28 0 8 -8 1 -31 -24z"/>
<path d="M241 393 c-1 -27 -18 -31 -24 -5 -3 9 -5 1 -6 -18 -1 -27 -4 -31 -11
-20 -9 13 -10 13 -10 0 0 -10 -7 -7 -21 10 l-21 25 21 -38 c26 -46 26 -54 4
-36 -17 13 -17 12 -2 -6 9 -11 20 -27 24 -35 8 -13 7 -13 -8 -1 -10 8 -17 9
-17 3 0 -6 5 -14 10 -17 15 -9 12 -25 -4 -19 -9 4 -15 -5 -18 -26 -6 -38 15
-60 31 -33 9 14 11 5 9 -41 -2 -43 1 -60 11 -64 11 -4 13 5 8 46 -4 33 -2 54
5 58 7 5 8 2 4 -7 -4 -8 -1 -6 7 4 20 24 27 21 27 -10 0 -19 -3 -24 -9 -15 -7
11 -9 11 -14 -2 -5 -12 0 -15 17 -14 20 2 23 7 20 38 -2 33 -2 34 12 15 8 -11
12 -25 10 -32 -7 -18 1 -16 25 5 18 18 19 21 3 57 -15 37 -15 57 2 145 4 24 4
24 -5 3 -15 -33 -31 -28 -32 10 0 27 -2 29 -9 12 -8 -18 -9 -18 -9 5 -1 18 -4
21 -10 11 -7 -11 -9 -11 -14 0 -3 8 -6 4 -6 -8z m40 -112 c7 11 9 10 9 -5 0
-12 -5 -16 -14 -13 -8 3 -17 1 -19 -6 -2 -7 -8 -9 -12 -5 -4 4 -1 13 6 21 8 9
16 11 18 5 2 -6 7 -4 12 3z m-51 -42 c0 -5 -4 -9 -10 -9 -5 0 -10 7 -10 16 0
8 5 12 10 9 6 -3 10 -10 10 -16z m82 -39 c3 -16 3 -30 2 -30 -9 0 -24 42 -19
50 10 16 12 12 17 -20z"/>
<path d="M471 314 c0 -11 3 -14 6 -6 3 7 2 16 -1 19 -3 4 -6 -2 -5 -13z"/>
<path d="M483 255 c0 -22 2 -30 4 -17 2 12 2 30 0 40 -3 9 -5 -1 -4 -23z"/>
<path d="M12 250 c0 -19 2 -27 5 -17 2 9 2 25 0 35 -3 9 -5 1 -5 -18z"/>
<path d="M21 197 c-1 -18 25 -77 35 -77 2 0 -1 10 -7 22 -6 12 -15 33 -20 47
-5 17 -8 20 -8 8z"/>
<path d="M80 85 c37 -41 116 -75 175 -75 51 0 126 27 141 51 4 7 -9 3 -29 -9
-77 -48 -181 -38 -264 25 -40 30 -44 31 -23 8z"/>
<path d="M419 93 c-13 -16 -12 -17 4 -4 16 13 21 21 13 21 -2 0 -10 -8 -17
-17z"/>
</g>
</svg>
