<svg width="62" height="62" viewBox="0 0 62 62" fill="none" xmlns="http://www.w3.org/2000/svg">
<rect x="1" y="1" width="59.8491" height="59.8491" rx="29.9245" stroke="#30343D" stroke-width="2"/>
<path d="M34.0721 30.5126C34.1057 23.7189 28.5381 18.0337 21.8284 18.0001C14.9339 17.975 9.26551 23.509 9.24032 30.3027C9.21513 37.3063 14.6904 42.9747 21.5009 42.9999C28.4541 43.0251 34.0385 37.4827 34.0721 30.5126Z" fill="white"/>
<path d="M47.6764 30.2608C47.626 27.5904 47.1977 24.794 45.8541 22.1991C45.409 21.3341 44.8631 20.5448 44.1326 19.8897C42.3942 18.3194 40.3452 18.3614 38.6657 19.9989C37.5236 21.1074 36.793 22.4762 36.3143 23.9626C34.786 28.7073 34.8364 33.4183 36.7174 38.0706C37.1625 39.1623 37.7923 40.1616 38.6489 40.9846C40.4628 42.7397 42.7385 42.6641 44.4517 40.8083C45.9296 39.2043 46.6686 37.2393 47.1641 35.165C47.5252 33.6283 47.668 32.0579 47.6764 30.2608Z" fill="white"/>
<path d="M53.2355 30.1093C53.2103 27.6908 53.0844 24.9028 52.379 22.1735C52.2194 21.5689 51.9843 20.9811 51.682 20.4352C51.3293 19.797 50.817 19.8138 50.4223 20.4352C49.8429 21.3338 49.6329 22.3751 49.4482 23.3996C48.8268 26.9014 48.7512 30.4368 49.0031 33.9806C49.1207 35.7021 49.3138 37.4069 49.7925 39.0696C49.9437 39.5902 50.1536 40.1025 50.4223 40.5728C50.7834 41.2026 51.3041 41.1942 51.6904 40.5728C52.2362 39.7162 52.4378 38.7421 52.6309 37.768C53.1012 35.3662 53.2355 32.9393 53.2355 30.1093Z" fill="white"/>
</svg>
