<svg width="62" height="62" viewBox="0 0 62 62" fill="none" xmlns="http://www.w3.org/2000/svg">
<rect x="1" y="1" width="59.8491" height="59.8491" rx="29.9245" stroke="#30343D" stroke-width="2"/>
<path d="M47.3156 23.9301C46.0996 23.7986 44.8724 24.0471 43.8055 24.6409C42.9746 25.046 42.3728 25.4512 42.2869 25.3517C39.308 23.4605 35.8889 22.3615 32.3583 22.1602C32.1863 22.1602 32.0932 18.1798 33.8411 16.9431C35.589 15.7063 39.3713 17.0923 39.7295 17.2132V17.5543C39.7343 18.6698 40.1534 19.7444 40.9065 20.5726C41.6596 21.4008 42.6939 21.9246 43.8117 22.0437C44.9295 22.1628 46.0524 21.869 46.9655 21.2183C47.8787 20.5677 48.5182 19.6059 48.7616 18.5169C49.0051 17.4278 48.8355 16.288 48.2852 15.3152C47.7349 14.3425 46.8426 13.6051 45.7789 13.2441C44.7152 12.883 43.5547 12.9237 42.5193 13.3583C41.4839 13.7929 40.6462 14.5908 40.1665 15.5997V15.486C40.1665 15.486 35.4959 13.6806 32.7308 15.486C29.9657 17.2913 30.3955 22.1105 30.2594 22.1176C26.5232 22.1211 22.854 23.1018 19.6216 24.9607C19.5428 25.0105 17.5728 23.9088 15.8034 23.9088C14.9698 23.8603 14.1393 24.0469 13.4079 24.4468C12.6765 24.8468 12.0741 25.4438 11.6701 26.1691C11.2922 26.823 11.0676 27.553 11.0131 28.3048C10.9585 29.0567 11.0753 29.8111 11.3549 30.512C11.9367 31.5506 12.7716 32.4279 13.7833 33.0637C13.7462 33.3917 13.7271 33.7216 13.726 34.0517C13.726 40.6478 21.3265 46 30.6963 46C40.0662 46 47.6738 40.6478 47.6738 34.0517C47.6845 33.841 47.6845 33.6298 47.6738 33.4191C47.6237 32.6657 50.0879 31.8838 50.8401 29.3036C51.0054 28.7193 51.0431 28.1068 50.9507 27.5069C50.8583 26.907 50.6379 26.3335 50.3043 25.8249C49.9707 25.3162 49.5315 24.8841 49.0161 24.5574C48.5007 24.2306 47.921 24.0167 47.3156 23.9301ZM44.2425 15.294C44.6987 15.287 45.1468 15.4148 45.5296 15.6612C45.9125 15.9075 46.2128 16.2614 46.3923 16.6776C46.5718 17.0939 46.6225 17.5537 46.5379 17.9986C46.4533 18.4435 46.2371 18.8534 45.917 19.176C45.5969 19.4987 45.1873 19.7195 44.7403 19.8105C44.2933 19.9015 43.8291 19.8584 43.4068 19.6868C42.9846 19.5152 42.6233 19.2228 42.369 18.8469C42.1147 18.4709 41.9789 18.0284 41.9788 17.5757C41.975 16.9755 42.2111 16.3984 42.6355 15.9707C43.0598 15.543 43.6377 15.2997 44.2425 15.294ZM21.613 31.2156C21.6187 30.7727 21.7562 30.3412 22.0084 29.9756C22.2605 29.61 22.616 29.3266 23.0301 29.1609C23.4442 28.9953 23.8984 28.9548 24.3356 29.0447C24.7728 29.1345 25.1735 29.3507 25.4872 29.6659C25.8009 29.9811 26.0137 30.3813 26.0987 30.8162C26.1838 31.2511 26.1373 31.7013 25.9652 32.1101C25.793 32.5188 25.5029 32.8679 25.1313 33.1135C24.7597 33.3591 24.3232 33.4901 23.8767 33.4902C23.5775 33.4883 23.2817 33.428 23.006 33.3127C22.7304 33.1974 22.4803 33.0293 22.2701 32.8181C22.0599 32.6069 21.8937 32.3567 21.7809 32.0817C21.6682 31.8068 21.6111 31.5125 21.613 31.2156ZM38.3111 38.6292C38.3111 38.6292 36.4271 40.8255 31.2264 40.8255C26.0257 40.8255 24.02 38.75 24.02 38.75C23.9363 38.6761 23.8791 38.5771 23.8572 38.4681C23.8352 38.3591 23.8496 38.246 23.8982 38.1458L24.2993 37.3711C24.3214 37.3258 24.353 37.2857 24.3921 37.2537C24.4312 37.2217 24.4769 37.1985 24.5259 37.1857C24.5749 37.1729 24.6261 37.1707 24.6761 37.1794C24.726 37.1881 24.7734 37.2074 24.8151 37.236C26.7436 38.433 28.989 39.0296 31.2623 38.949C35.3454 38.949 37.3297 37.2573 37.3297 37.2573C37.4153 37.1955 37.5221 37.1697 37.6268 37.1857C37.7315 37.2017 37.8256 37.2581 37.8885 37.3426L38.3828 38.0179C38.4518 38.1095 38.4829 38.224 38.4695 38.3377C38.4562 38.4513 38.3995 38.5556 38.3111 38.6292ZM37.4229 33.4902C36.9683 33.4958 36.5223 33.3672 36.1416 33.1207C35.7609 32.8743 35.4626 32.521 35.2847 32.1059C35.1068 31.6909 35.0573 31.2327 35.1425 30.7896C35.2277 30.3465 35.4437 29.9386 35.7631 29.6176C36.0825 29.2967 36.4909 29.0772 36.9363 28.9871C37.3818 28.897 37.8441 28.9404 38.2647 29.1117C38.6852 29.283 39.0449 29.5745 39.2981 29.9491C39.5513 30.3237 39.6865 30.7646 39.6865 31.2156C39.6884 31.5125 39.6313 31.8068 39.5186 32.0817C39.4059 32.3567 39.2397 32.6069 39.0295 32.8181C38.8193 33.0293 38.5692 33.1974 38.2935 33.3127C38.0179 33.428 37.722 33.4883 37.4229 33.4902Z" fill="white"/>
</svg>
