<svg width="62" height="62" viewBox="0 0 62 62" fill="none" xmlns="http://www.w3.org/2000/svg">
<rect x="1" y="1" width="59.8491" height="59.8491" rx="29.9245" stroke="#30343D" stroke-width="2"/>
<path d="M47.7924 20.1965C46.5328 20.7698 45.1925 21.1462 43.8186 21.3126C45.2735 20.4147 46.3545 19.0207 46.8619 17.388C45.507 18.2126 44.0185 18.7943 42.4636 19.1071C41.8243 18.4025 41.0447 17.8393 40.175 17.4537C39.3052 17.0681 38.3644 16.8686 37.413 16.8679C33.5924 16.8679 30.4944 20.0447 30.4944 23.9651C30.4944 24.5217 30.5534 25.0615 30.6715 25.5816C24.9195 25.285 19.8198 22.461 16.404 18.1639C15.7881 19.2529 15.4655 20.4832 15.4679 21.7343C15.4679 24.1956 16.6908 26.3688 18.5463 27.6423C17.445 27.6056 16.3693 27.3017 15.4116 26.7567V26.8439C15.4116 30.2835 17.797 33.1525 20.964 33.8019C20.3714 33.9699 19.7582 34.0541 19.1423 34.0521C18.6967 34.0521 18.2609 34.0099 17.8392 33.9256C18.7192 36.7454 21.2746 38.7976 24.3038 38.8525C22.8801 40.0045 21.2393 40.8586 19.4789 41.364C17.7186 41.8694 15.8746 42.0158 14.0566 41.7945C17.2051 43.8722 20.8942 44.9802 24.6665 44.9811C37.399 44.9811 44.3598 34.1688 44.3598 24.7888C44.3598 24.4796 44.3528 24.1717 44.3415 23.8695C45.6938 22.8687 46.8675 21.6205 47.7924 20.1965Z" fill="#4FC8EE"/>
</svg>
